<mxfile host="app.diagrams.net" agent="Mozilla/5.0 (Windows NT 10.0; Win64; x64) AppleWebKit/537.36 (KHTML, like Gecko) Chrome/130.0.0.0 Safari/537.36 Edg/130.0.0.0" version="24.8.4">
  <diagram name="Page-1" id="d9__3YlghzYdv_kg8-Tk">
    <mxGraphModel dx="2553" dy="1160" grid="1" gridSize="10" guides="1" tooltips="1" connect="1" arrows="1" fold="1" page="1" pageScale="1" pageWidth="850" pageHeight="1100" math="1" shadow="0">
      <root>
        <mxCell id="0" />
        <mxCell id="1" parent="0" />
        <mxCell id="ahC4wNvq7suiztcpRqVD-3" value="" style="edgeStyle=orthogonalEdgeStyle;rounded=0;orthogonalLoop=1;jettySize=auto;html=1;" edge="1" parent="1" source="ahC4wNvq7suiztcpRqVD-1" target="ahC4wNvq7suiztcpRqVD-2">
          <mxGeometry relative="1" as="geometry" />
        </mxCell>
        <mxCell id="ahC4wNvq7suiztcpRqVD-1" value="LDPC/turbo convolutional coding" style="rounded=0;whiteSpace=wrap;html=1;" vertex="1" parent="1">
          <mxGeometry x="120" y="160" width="80" height="60" as="geometry" />
        </mxCell>
        <mxCell id="ahC4wNvq7suiztcpRqVD-5" value="" style="edgeStyle=orthogonalEdgeStyle;rounded=0;orthogonalLoop=1;jettySize=auto;html=1;" edge="1" parent="1" source="ahC4wNvq7suiztcpRqVD-2" target="ahC4wNvq7suiztcpRqVD-4">
          <mxGeometry relative="1" as="geometry" />
        </mxCell>
        <mxCell id="ahC4wNvq7suiztcpRqVD-2" value="Interleaver" style="rounded=0;whiteSpace=wrap;html=1;" vertex="1" parent="1">
          <mxGeometry x="240" y="170" width="80" height="40" as="geometry" />
        </mxCell>
        <mxCell id="ahC4wNvq7suiztcpRqVD-7" value="" style="edgeStyle=orthogonalEdgeStyle;rounded=0;orthogonalLoop=1;jettySize=auto;html=1;" edge="1" parent="1" source="ahC4wNvq7suiztcpRqVD-4" target="ahC4wNvq7suiztcpRqVD-6">
          <mxGeometry relative="1" as="geometry" />
        </mxCell>
        <mxCell id="ahC4wNvq7suiztcpRqVD-4" value="QAM mapper" style="rounded=0;whiteSpace=wrap;html=1;" vertex="1" parent="1">
          <mxGeometry x="360" y="160" width="60" height="60" as="geometry" />
        </mxCell>
        <mxCell id="ahC4wNvq7suiztcpRqVD-9" value="" style="edgeStyle=orthogonalEdgeStyle;rounded=0;orthogonalLoop=1;jettySize=auto;html=1;" edge="1" parent="1" source="ahC4wNvq7suiztcpRqVD-6" target="ahC4wNvq7suiztcpRqVD-8">
          <mxGeometry relative="1" as="geometry" />
        </mxCell>
        <mxCell id="ahC4wNvq7suiztcpRqVD-6" value="S/P converter (or DEMUX)" style="rounded=0;whiteSpace=wrap;html=1;flipV=1;flipH=1;textDirection=vertical-rl;rotation=-180;" vertex="1" parent="1">
          <mxGeometry x="460" y="150" width="40" height="80" as="geometry" />
        </mxCell>
        <mxCell id="ahC4wNvq7suiztcpRqVD-8" value="Subcarrier mapper" style="rounded=0;whiteSpace=wrap;html=1;flipV=1;flipH=1;textDirection=vertical-rl;rotation=-180;" vertex="1" parent="1">
          <mxGeometry x="540" y="150" width="40" height="80" as="geometry" />
        </mxCell>
        <mxCell id="ahC4wNvq7suiztcpRqVD-18" value="" style="edgeStyle=orthogonalEdgeStyle;rounded=0;orthogonalLoop=1;jettySize=auto;html=1;" edge="1" parent="1" source="ahC4wNvq7suiztcpRqVD-10" target="ahC4wNvq7suiztcpRqVD-17">
          <mxGeometry relative="1" as="geometry" />
        </mxCell>
        <mxCell id="ahC4wNvq7suiztcpRqVD-10" value="IFFT modulator" style="rounded=0;whiteSpace=wrap;html=1;" vertex="1" parent="1">
          <mxGeometry x="620" y="150" width="70" height="80" as="geometry" />
        </mxCell>
        <mxCell id="ahC4wNvq7suiztcpRqVD-12" value="" style="endArrow=classic;html=1;rounded=0;entryX=-0.003;entryY=0.129;entryDx=0;entryDy=0;entryPerimeter=0;exitX=1.015;exitY=0.133;exitDx=0;exitDy=0;exitPerimeter=0;" edge="1" parent="1" source="ahC4wNvq7suiztcpRqVD-8" target="ahC4wNvq7suiztcpRqVD-10">
          <mxGeometry width="50" height="50" relative="1" as="geometry">
            <mxPoint x="460" y="320" as="sourcePoint" />
            <mxPoint x="510" y="270" as="targetPoint" />
          </mxGeometry>
        </mxCell>
        <mxCell id="ahC4wNvq7suiztcpRqVD-13" value="" style="endArrow=classic;html=1;rounded=0;entryX=0;entryY=0.25;entryDx=0;entryDy=0;exitX=0;exitY=0.75;exitDx=0;exitDy=0;" edge="1" parent="1" source="ahC4wNvq7suiztcpRqVD-8" target="ahC4wNvq7suiztcpRqVD-10">
          <mxGeometry width="50" height="50" relative="1" as="geometry">
            <mxPoint x="591" y="171" as="sourcePoint" />
            <mxPoint x="630" y="170" as="targetPoint" />
          </mxGeometry>
        </mxCell>
        <mxCell id="ahC4wNvq7suiztcpRqVD-15" value="" style="endArrow=classic;html=1;rounded=0;entryX=0.004;entryY=0.878;entryDx=0;entryDy=0;entryPerimeter=0;exitX=0.986;exitY=0.874;exitDx=0;exitDy=0;exitPerimeter=0;" edge="1" parent="1" source="ahC4wNvq7suiztcpRqVD-8" target="ahC4wNvq7suiztcpRqVD-10">
          <mxGeometry width="50" height="50" relative="1" as="geometry">
            <mxPoint x="590" y="230" as="sourcePoint" />
            <mxPoint x="630" y="180" as="targetPoint" />
          </mxGeometry>
        </mxCell>
        <mxCell id="ahC4wNvq7suiztcpRqVD-16" value="$$\vdots$$" style="text;html=1;align=center;verticalAlign=middle;whiteSpace=wrap;rounded=0;" vertex="1" parent="1">
          <mxGeometry x="590" y="180" width="20" height="30" as="geometry" />
        </mxCell>
        <mxCell id="ahC4wNvq7suiztcpRqVD-20" value="" style="edgeStyle=orthogonalEdgeStyle;rounded=0;orthogonalLoop=1;jettySize=auto;html=1;" edge="1" parent="1" source="ahC4wNvq7suiztcpRqVD-17" target="ahC4wNvq7suiztcpRqVD-19">
          <mxGeometry relative="1" as="geometry" />
        </mxCell>
        <mxCell id="ahC4wNvq7suiztcpRqVD-17" value="Cyclic extension&lt;div&gt;+&lt;/div&gt;&lt;div&gt;windowing&lt;/div&gt;" style="rounded=0;whiteSpace=wrap;html=1;" vertex="1" parent="1">
          <mxGeometry x="730" y="160" width="100" height="60" as="geometry" />
        </mxCell>
        <mxCell id="ahC4wNvq7suiztcpRqVD-23" value="" style="edgeStyle=orthogonalEdgeStyle;rounded=0;orthogonalLoop=1;jettySize=auto;html=1;" edge="1" parent="1" source="ahC4wNvq7suiztcpRqVD-19" target="ahC4wNvq7suiztcpRqVD-22">
          <mxGeometry relative="1" as="geometry" />
        </mxCell>
        <mxCell id="ahC4wNvq7suiztcpRqVD-19" value="DAC" style="rounded=0;whiteSpace=wrap;html=1;" vertex="1" parent="1">
          <mxGeometry x="870" y="175" width="50" height="30" as="geometry" />
        </mxCell>
        <mxCell id="ahC4wNvq7suiztcpRqVD-22" value="RF ttransmitter" style="rounded=0;whiteSpace=wrap;html=1;flipV=1;flipH=1;textDirection=vertical-rl;rotation=-180;" vertex="1" parent="1">
          <mxGeometry x="960" y="140" width="30" height="100" as="geometry" />
        </mxCell>
        <mxCell id="ahC4wNvq7suiztcpRqVD-26" value="" style="group" vertex="1" connectable="0" parent="1">
          <mxGeometry x="1017.5" y="152.5" width="25" height="37.5" as="geometry" />
        </mxCell>
        <mxCell id="ahC4wNvq7suiztcpRqVD-24" value="" style="triangle;whiteSpace=wrap;html=1;rotation=90;" vertex="1" parent="ahC4wNvq7suiztcpRqVD-26">
          <mxGeometry x="2.5" y="-2.5" width="20" height="25" as="geometry" />
        </mxCell>
        <mxCell id="ahC4wNvq7suiztcpRqVD-25" value="" style="endArrow=none;html=1;rounded=0;entryX=1;entryY=0.5;entryDx=0;entryDy=0;" edge="1" parent="ahC4wNvq7suiztcpRqVD-26" target="ahC4wNvq7suiztcpRqVD-24">
          <mxGeometry width="50" height="50" relative="1" as="geometry">
            <mxPoint x="12.5" y="37.5" as="sourcePoint" />
            <mxPoint x="12.5" y="-102.5" as="targetPoint" />
          </mxGeometry>
        </mxCell>
        <mxCell id="ahC4wNvq7suiztcpRqVD-27" value="" style="endArrow=classic;html=1;rounded=0;exitX=0;exitY=0.5;exitDx=0;exitDy=0;" edge="1" parent="1" source="ahC4wNvq7suiztcpRqVD-22">
          <mxGeometry width="50" height="50" relative="1" as="geometry">
            <mxPoint x="970" y="100" as="sourcePoint" />
            <mxPoint x="1030" y="190" as="targetPoint" />
          </mxGeometry>
        </mxCell>
        <mxCell id="ahC4wNvq7suiztcpRqVD-31" value="" style="edgeStyle=orthogonalEdgeStyle;rounded=0;orthogonalLoop=1;jettySize=auto;html=1;" edge="1" parent="1" source="ahC4wNvq7suiztcpRqVD-28" target="ahC4wNvq7suiztcpRqVD-30">
          <mxGeometry relative="1" as="geometry" />
        </mxCell>
        <mxCell id="ahC4wNvq7suiztcpRqVD-28" value="RF receiver" style="rounded=0;whiteSpace=wrap;html=1;flipV=1;flipH=1;textDirection=vertical-rl;rotation=-180;" vertex="1" parent="1">
          <mxGeometry x="5" y="290" width="30" height="100" as="geometry" />
        </mxCell>
        <mxCell id="ahC4wNvq7suiztcpRqVD-33" value="" style="edgeStyle=orthogonalEdgeStyle;rounded=0;orthogonalLoop=1;jettySize=auto;html=1;" edge="1" parent="1" source="ahC4wNvq7suiztcpRqVD-30" target="ahC4wNvq7suiztcpRqVD-32">
          <mxGeometry relative="1" as="geometry" />
        </mxCell>
        <mxCell id="ahC4wNvq7suiztcpRqVD-30" value="DAC" style="rounded=0;whiteSpace=wrap;html=1;" vertex="1" parent="1">
          <mxGeometry x="65" y="325" width="50" height="30" as="geometry" />
        </mxCell>
        <mxCell id="ahC4wNvq7suiztcpRqVD-35" value="" style="edgeStyle=orthogonalEdgeStyle;rounded=0;orthogonalLoop=1;jettySize=auto;html=1;" edge="1" parent="1" source="ahC4wNvq7suiztcpRqVD-32" target="ahC4wNvq7suiztcpRqVD-34">
          <mxGeometry relative="1" as="geometry" />
        </mxCell>
        <mxCell id="ahC4wNvq7suiztcpRqVD-36" style="edgeStyle=orthogonalEdgeStyle;rounded=0;orthogonalLoop=1;jettySize=auto;html=1;exitX=0.5;exitY=1;exitDx=0;exitDy=0;entryX=0.5;entryY=1;entryDx=0;entryDy=0;" edge="1" parent="1" source="ahC4wNvq7suiztcpRqVD-32" target="ahC4wNvq7suiztcpRqVD-34">
          <mxGeometry relative="1" as="geometry">
            <Array as="points">
              <mxPoint x="195" y="400" />
              <mxPoint x="310" y="400" />
            </Array>
          </mxGeometry>
        </mxCell>
        <mxCell id="ahC4wNvq7suiztcpRqVD-32" value="Timing and frequency synchronization" style="rounded=0;whiteSpace=wrap;html=1;" vertex="1" parent="1">
          <mxGeometry x="145" y="310" width="100" height="60" as="geometry" />
        </mxCell>
        <mxCell id="ahC4wNvq7suiztcpRqVD-38" value="" style="edgeStyle=orthogonalEdgeStyle;rounded=0;orthogonalLoop=1;jettySize=auto;html=1;" edge="1" parent="1" source="ahC4wNvq7suiztcpRqVD-34" target="ahC4wNvq7suiztcpRqVD-37">
          <mxGeometry relative="1" as="geometry" />
        </mxCell>
        <mxCell id="ahC4wNvq7suiztcpRqVD-34" value="Cyclic extension removal" style="rounded=0;whiteSpace=wrap;html=1;" vertex="1" parent="1">
          <mxGeometry x="275" y="310" width="70" height="60" as="geometry" />
        </mxCell>
        <mxCell id="ahC4wNvq7suiztcpRqVD-37" value="S/P converter" style="rounded=0;whiteSpace=wrap;html=1;" vertex="1" parent="1">
          <mxGeometry x="375" y="315" width="70" height="50" as="geometry" />
        </mxCell>
        <mxCell id="ahC4wNvq7suiztcpRqVD-39" value="FFT demodulator" style="rounded=0;whiteSpace=wrap;html=1;" vertex="1" parent="1">
          <mxGeometry x="475" y="315" width="90" height="50" as="geometry" />
        </mxCell>
        <mxCell id="ahC4wNvq7suiztcpRqVD-40" value="" style="endArrow=classic;html=1;rounded=0;entryX=-0.006;entryY=0.098;entryDx=0;entryDy=0;entryPerimeter=0;exitX=0.991;exitY=0.098;exitDx=0;exitDy=0;exitPerimeter=0;" edge="1" parent="1" source="ahC4wNvq7suiztcpRqVD-37" target="ahC4wNvq7suiztcpRqVD-39">
          <mxGeometry width="50" height="50" relative="1" as="geometry">
            <mxPoint x="355" y="190" as="sourcePoint" />
            <mxPoint x="405" y="140" as="targetPoint" />
          </mxGeometry>
        </mxCell>
        <mxCell id="ahC4wNvq7suiztcpRqVD-41" value="" style="endArrow=classic;html=1;rounded=0;entryX=0.004;entryY=0.296;entryDx=0;entryDy=0;exitX=0.996;exitY=0.296;exitDx=0;exitDy=0;exitPerimeter=0;entryPerimeter=0;" edge="1" parent="1" source="ahC4wNvq7suiztcpRqVD-37" target="ahC4wNvq7suiztcpRqVD-39">
          <mxGeometry width="50" height="50" relative="1" as="geometry">
            <mxPoint x="444" y="330" as="sourcePoint" />
            <mxPoint x="484" y="330" as="targetPoint" />
          </mxGeometry>
        </mxCell>
        <mxCell id="ahC4wNvq7suiztcpRqVD-42" value="" style="endArrow=classic;html=1;rounded=0;entryX=-0.007;entryY=0.887;entryDx=0;entryDy=0;exitX=0.992;exitY=0.882;exitDx=0;exitDy=0;exitPerimeter=0;entryPerimeter=0;" edge="1" parent="1" source="ahC4wNvq7suiztcpRqVD-37" target="ahC4wNvq7suiztcpRqVD-39">
          <mxGeometry width="50" height="50" relative="1" as="geometry">
            <mxPoint x="445" y="340" as="sourcePoint" />
            <mxPoint x="485" y="340" as="targetPoint" />
          </mxGeometry>
        </mxCell>
        <mxCell id="ahC4wNvq7suiztcpRqVD-43" value="$$\vdots$$" style="text;html=1;align=center;verticalAlign=middle;whiteSpace=wrap;rounded=0;" vertex="1" parent="1">
          <mxGeometry x="445" y="325" width="30" height="35" as="geometry" />
        </mxCell>
        <mxCell id="ahC4wNvq7suiztcpRqVD-44" value="Symbol detection" style="rounded=0;whiteSpace=wrap;html=1;" vertex="1" parent="1">
          <mxGeometry x="595" y="317.5" width="70" height="50" as="geometry" />
        </mxCell>
        <mxCell id="ahC4wNvq7suiztcpRqVD-45" value="" style="endArrow=classic;html=1;rounded=0;entryX=-0.005;entryY=0.099;entryDx=0;entryDy=0;entryPerimeter=0;exitX=0.997;exitY=0.153;exitDx=0;exitDy=0;exitPerimeter=0;" edge="1" parent="1" source="ahC4wNvq7suiztcpRqVD-39" target="ahC4wNvq7suiztcpRqVD-44">
          <mxGeometry width="50" height="50" relative="1" as="geometry">
            <mxPoint x="585" y="322.5" as="sourcePoint" />
            <mxPoint x="614" y="322.5" as="targetPoint" />
          </mxGeometry>
        </mxCell>
        <mxCell id="ahC4wNvq7suiztcpRqVD-46" value="" style="endArrow=classic;html=1;rounded=0;entryX=-0.012;entryY=0.294;entryDx=0;entryDy=0;exitX=1.006;exitY=0.345;exitDx=0;exitDy=0;exitPerimeter=0;entryPerimeter=0;" edge="1" parent="1" source="ahC4wNvq7suiztcpRqVD-39" target="ahC4wNvq7suiztcpRqVD-44">
          <mxGeometry width="50" height="50" relative="1" as="geometry">
            <mxPoint x="575" y="332.5" as="sourcePoint" />
            <mxPoint x="615" y="332.5" as="targetPoint" />
          </mxGeometry>
        </mxCell>
        <mxCell id="ahC4wNvq7suiztcpRqVD-47" value="" style="endArrow=classic;html=1;rounded=0;entryX=-0.011;entryY=0.884;entryDx=0;entryDy=0;exitX=1.002;exitY=0.925;exitDx=0;exitDy=0;exitPerimeter=0;entryPerimeter=0;" edge="1" parent="1" source="ahC4wNvq7suiztcpRqVD-39" target="ahC4wNvq7suiztcpRqVD-44">
          <mxGeometry width="50" height="50" relative="1" as="geometry">
            <mxPoint x="574" y="361.5" as="sourcePoint" />
            <mxPoint x="614" y="361.5" as="targetPoint" />
          </mxGeometry>
        </mxCell>
        <mxCell id="ahC4wNvq7suiztcpRqVD-48" value="$$\vdots$$" style="text;html=1;align=center;verticalAlign=middle;whiteSpace=wrap;rounded=0;" vertex="1" parent="1">
          <mxGeometry x="565" y="327.5" width="30" height="35" as="geometry" />
        </mxCell>
        <mxCell id="ahC4wNvq7suiztcpRqVD-55" value="" style="edgeStyle=orthogonalEdgeStyle;rounded=0;orthogonalLoop=1;jettySize=auto;html=1;" edge="1" parent="1" source="ahC4wNvq7suiztcpRqVD-49" target="ahC4wNvq7suiztcpRqVD-54">
          <mxGeometry relative="1" as="geometry" />
        </mxCell>
        <mxCell id="ahC4wNvq7suiztcpRqVD-49" value="P/S converter" style="rounded=0;whiteSpace=wrap;html=1;" vertex="1" parent="1">
          <mxGeometry x="694.25" y="317.5" width="70" height="50" as="geometry" />
        </mxCell>
        <mxCell id="ahC4wNvq7suiztcpRqVD-50" value="" style="endArrow=classic;html=1;rounded=0;entryX=-0.014;entryY=0.095;entryDx=0;entryDy=0;entryPerimeter=0;exitX=0.991;exitY=0.098;exitDx=0;exitDy=0;exitPerimeter=0;" edge="1" parent="1" target="ahC4wNvq7suiztcpRqVD-49">
          <mxGeometry width="50" height="50" relative="1" as="geometry">
            <mxPoint x="665" y="322.5" as="sourcePoint" />
            <mxPoint x="705" y="322.5" as="targetPoint" />
          </mxGeometry>
        </mxCell>
        <mxCell id="ahC4wNvq7suiztcpRqVD-51" value="" style="endArrow=classic;html=1;rounded=0;entryX=-0.01;entryY=0.302;entryDx=0;entryDy=0;exitX=0.996;exitY=0.296;exitDx=0;exitDy=0;exitPerimeter=0;entryPerimeter=0;" edge="1" parent="1" target="ahC4wNvq7suiztcpRqVD-49">
          <mxGeometry width="50" height="50" relative="1" as="geometry">
            <mxPoint x="666" y="332.5" as="sourcePoint" />
            <mxPoint x="706" y="332.5" as="targetPoint" />
          </mxGeometry>
        </mxCell>
        <mxCell id="ahC4wNvq7suiztcpRqVD-52" value="" style="endArrow=classic;html=1;rounded=0;entryX=-0.005;entryY=0.883;entryDx=0;entryDy=0;exitX=0.992;exitY=0.882;exitDx=0;exitDy=0;exitPerimeter=0;entryPerimeter=0;" edge="1" parent="1" target="ahC4wNvq7suiztcpRqVD-49">
          <mxGeometry width="50" height="50" relative="1" as="geometry">
            <mxPoint x="665" y="361.5" as="sourcePoint" />
            <mxPoint x="705" y="361.5" as="targetPoint" />
          </mxGeometry>
        </mxCell>
        <mxCell id="ahC4wNvq7suiztcpRqVD-53" value="$$\vdots$$" style="text;html=1;align=center;verticalAlign=middle;whiteSpace=wrap;rounded=0;" vertex="1" parent="1">
          <mxGeometry x="665" y="327.5" width="30" height="35" as="geometry" />
        </mxCell>
        <mxCell id="ahC4wNvq7suiztcpRqVD-57" value="" style="edgeStyle=orthogonalEdgeStyle;rounded=0;orthogonalLoop=1;jettySize=auto;html=1;" edge="1" parent="1" source="ahC4wNvq7suiztcpRqVD-54" target="ahC4wNvq7suiztcpRqVD-56">
          <mxGeometry relative="1" as="geometry" />
        </mxCell>
        <mxCell id="ahC4wNvq7suiztcpRqVD-54" value="QAM demapping" style="rounded=0;whiteSpace=wrap;html=1;" vertex="1" parent="1">
          <mxGeometry x="795" y="312.5" width="80" height="60" as="geometry" />
        </mxCell>
        <mxCell id="ahC4wNvq7suiztcpRqVD-59" value="" style="edgeStyle=orthogonalEdgeStyle;rounded=0;orthogonalLoop=1;jettySize=auto;html=1;" edge="1" parent="1" source="ahC4wNvq7suiztcpRqVD-56" target="ahC4wNvq7suiztcpRqVD-58">
          <mxGeometry relative="1" as="geometry" />
        </mxCell>
        <mxCell id="ahC4wNvq7suiztcpRqVD-56" value="Deinterleaving" style="rounded=0;whiteSpace=wrap;html=1;" vertex="1" parent="1">
          <mxGeometry x="905" y="327.5" width="90" height="30" as="geometry" />
        </mxCell>
        <mxCell id="ahC4wNvq7suiztcpRqVD-58" value="LDPC/turbo/&lt;div&gt;convolutional decoding&lt;/div&gt;" style="rounded=0;whiteSpace=wrap;html=1;" vertex="1" parent="1">
          <mxGeometry x="1025" y="312.5" width="82.5" height="60" as="geometry" />
        </mxCell>
        <mxCell id="ahC4wNvq7suiztcpRqVD-60" value="&lt;font style=&quot;font-size: 10px;&quot;&gt;Binary&lt;/font&gt;&lt;div&gt;&lt;font style=&quot;font-size: 10px;&quot;&gt;data stream&lt;/font&gt;&lt;/div&gt;" style="text;html=1;align=center;verticalAlign=middle;whiteSpace=wrap;rounded=0;" vertex="1" parent="1">
          <mxGeometry x="60" y="150" width="60" height="40" as="geometry" />
        </mxCell>
        <mxCell id="ahC4wNvq7suiztcpRqVD-61" value="" style="endArrow=classic;html=1;rounded=0;entryX=0;entryY=0.5;entryDx=0;entryDy=0;exitX=0.5;exitY=1;exitDx=0;exitDy=0;" edge="1" parent="1" source="ahC4wNvq7suiztcpRqVD-60" target="ahC4wNvq7suiztcpRqVD-1">
          <mxGeometry width="50" height="50" relative="1" as="geometry">
            <mxPoint x="180" y="280" as="sourcePoint" />
            <mxPoint x="230" y="230" as="targetPoint" />
          </mxGeometry>
        </mxCell>
        <mxCell id="ahC4wNvq7suiztcpRqVD-66" value="" style="endArrow=classic;html=1;rounded=0;entryX=1;entryY=0.5;entryDx=0;entryDy=0;" edge="1" parent="1" target="ahC4wNvq7suiztcpRqVD-28">
          <mxGeometry width="50" height="50" relative="1" as="geometry">
            <mxPoint x="-25" y="340" as="sourcePoint" />
            <mxPoint x="65" y="320" as="targetPoint" />
          </mxGeometry>
        </mxCell>
        <mxCell id="ahC4wNvq7suiztcpRqVD-63" value="" style="triangle;whiteSpace=wrap;html=1;rotation=90;container=0;" vertex="1" parent="1">
          <mxGeometry x="-35" y="297.3333333333333" width="20" height="26.666666666666668" as="geometry" />
        </mxCell>
        <mxCell id="ahC4wNvq7suiztcpRqVD-64" value="" style="endArrow=none;html=1;rounded=0;entryX=1;entryY=0.5;entryDx=0;entryDy=0;" edge="1" parent="1" target="ahC4wNvq7suiztcpRqVD-63">
          <mxGeometry width="50" height="50" relative="1" as="geometry">
            <mxPoint x="-25" y="340" as="sourcePoint" />
            <mxPoint x="-25" y="190.66666666666669" as="targetPoint" />
          </mxGeometry>
        </mxCell>
        <mxCell id="ahC4wNvq7suiztcpRqVD-69" value="&lt;font style=&quot;font-size: 10px;&quot;&gt;QAM symbol data stream&lt;/font&gt;" style="text;html=1;align=center;verticalAlign=middle;whiteSpace=wrap;rounded=0;" vertex="1" parent="1">
          <mxGeometry x="395" y="110" width="60" height="30" as="geometry" />
        </mxCell>
        <mxCell id="ahC4wNvq7suiztcpRqVD-70" value="" style="endArrow=classic;html=1;rounded=0;exitX=0.5;exitY=1;exitDx=0;exitDy=0;" edge="1" parent="1" source="ahC4wNvq7suiztcpRqVD-69">
          <mxGeometry width="50" height="50" relative="1" as="geometry">
            <mxPoint x="560" y="170" as="sourcePoint" />
            <mxPoint x="440" y="180" as="targetPoint" />
          </mxGeometry>
        </mxCell>
        <mxCell id="ahC4wNvq7suiztcpRqVD-71" value="&lt;font style=&quot;font-size: 10px;&quot;&gt;symbol timing&lt;/font&gt;" style="text;html=1;align=center;verticalAlign=middle;whiteSpace=wrap;rounded=0;" vertex="1" parent="1">
          <mxGeometry x="225" y="270" width="60" height="30" as="geometry" />
        </mxCell>
        <mxCell id="ahC4wNvq7suiztcpRqVD-72" value="" style="endArrow=classic;html=1;rounded=0;exitX=0.5;exitY=1;exitDx=0;exitDy=0;" edge="1" parent="1" source="ahC4wNvq7suiztcpRqVD-71">
          <mxGeometry width="50" height="50" relative="1" as="geometry">
            <mxPoint x="285" y="120" as="sourcePoint" />
            <mxPoint x="265" y="330" as="targetPoint" />
          </mxGeometry>
        </mxCell>
        <mxCell id="ahC4wNvq7suiztcpRqVD-73" value="&lt;font style=&quot;font-size: 10px;&quot;&gt;Frequency-offset Corrected signal&lt;/font&gt;" style="text;html=1;align=center;verticalAlign=middle;whiteSpace=wrap;rounded=0;" vertex="1" parent="1">
          <mxGeometry x="195" y="400" width="115" height="30" as="geometry" />
        </mxCell>
        <mxCell id="ahC4wNvq7suiztcpRqVD-74" value="&lt;span style=&quot;font-size: 10px;&quot;&gt;Estimated QAM data stream&lt;/span&gt;" style="text;html=1;align=center;verticalAlign=middle;whiteSpace=wrap;rounded=0;" vertex="1" parent="1">
          <mxGeometry x="725" y="270" width="80" height="30" as="geometry" />
        </mxCell>
        <mxCell id="ahC4wNvq7suiztcpRqVD-75" value="" style="endArrow=classic;html=1;rounded=0;exitX=0.5;exitY=1;exitDx=0;exitDy=0;" edge="1" parent="1" source="ahC4wNvq7suiztcpRqVD-74">
          <mxGeometry width="50" height="50" relative="1" as="geometry">
            <mxPoint x="545" y="270" as="sourcePoint" />
            <mxPoint x="785" y="330" as="targetPoint" />
          </mxGeometry>
        </mxCell>
        <mxCell id="ahC4wNvq7suiztcpRqVD-76" value="&lt;span style=&quot;font-size: 10px;&quot;&gt;Estimated QAM data stream&lt;/span&gt;" style="text;html=1;align=center;verticalAlign=middle;whiteSpace=wrap;rounded=0;" vertex="1" parent="1">
          <mxGeometry x="1075" y="270" width="80" height="30" as="geometry" />
        </mxCell>
        <mxCell id="ahC4wNvq7suiztcpRqVD-79" value="" style="endArrow=classic;html=1;rounded=0;exitX=1;exitY=0.5;exitDx=0;exitDy=0;" edge="1" parent="1" source="ahC4wNvq7suiztcpRqVD-58">
          <mxGeometry width="50" height="50" relative="1" as="geometry">
            <mxPoint x="1015" y="290" as="sourcePoint" />
            <mxPoint x="1135" y="343" as="targetPoint" />
          </mxGeometry>
        </mxCell>
        <mxCell id="ahC4wNvq7suiztcpRqVD-80" value="" style="endArrow=classic;html=1;rounded=0;exitX=0.5;exitY=1;exitDx=0;exitDy=0;" edge="1" parent="1" source="ahC4wNvq7suiztcpRqVD-76">
          <mxGeometry width="50" height="50" relative="1" as="geometry">
            <mxPoint x="945" y="250" as="sourcePoint" />
            <mxPoint x="1115" y="330" as="targetPoint" />
          </mxGeometry>
        </mxCell>
      </root>
    </mxGraphModel>
  </diagram>
</mxfile>
